<?xml version="1.0" encoding="utf-8"?>
<!-- Generator: Adobe Illustrator 23.0.5, SVG Export Plug-In . SVG Version: 6.00 Build 0)  -->
<svg version="1.1" id="Layer_2" xmlns="http://www.w3.org/2000/svg" xmlns:xlink="http://www.w3.org/1999/xlink" x="0px" y="0px"
	 viewBox="0 0 1000 1000" style="enable-background:new 0 0 1000 1000;" xml:space="preserve">
<polygon points="483.09,758.95 524.7,758.95 518.46,463.54 489.33,463.54 "/>
<path d="M876.27,717.34c-54.09-33.29-239.24-43.69-239.24-43.69v-47.85c76.97,45.77,197.63,47.85,197.63,47.85
	s22.88,2.08,14.56-2.08c-106.1-20.8-205.95-43.69-270.44-104.02s-62.41-104.02-62.41-104.02h-24.96
	c-8.32,120.66-201.79,180.99-201.79,180.99s-39.53,20.8-16.64,18.72c22.88-2.08,99.86-35.37,99.86-35.37s0,37.45,0,47.85
	c-22.88,0-114.42,8.32-114.42,8.32s-14.56-31.2,12.48-81.13c47.85-83.21,106.1-116.5,131.06-139.38
	c24.96-22.88,93.61-66.57,110.26-79.05c16.64-12.48,64.49-43.69,64.49-43.69l-10.4-10.4c-45.77,37.45-112.34,56.17-212.19,126.9
	S229.29,582.12,212.65,613.32c-16.64,31.2-10.4,83.21-10.4,83.21s-35.37,6.24-52.01,8.32c-16.64,2.08-93.61,27.04-12.48,16.64
	s345.34-20.8,345.34-20.8h39.53c224.68,2.08,343.25,20.8,343.25,20.8S888.76,725.66,876.27,717.34z M431.08,671.57l-43.69,2.08
	v-54.09c0,0,22.88-10.4,43.69-29.12V671.57z M489.33,671.57h-43.69v-95.7c0,0,29.12-24.96,43.69-47.85V671.57z M562.14,669.49
	h-43.69V525.95c12.48,22.88,43.69,47.85,43.69,47.85V669.49z M620.39,673.65l-43.69-2.08v-85.29c0,0,22.88,24.96,43.69,31.21V673.65
	z"/>
<path d="M574.63,305.43l29.12,31.2c4.16,2.08,18.72-10.4,18.72-10.4s4.16,31.2,0,54.09c-2.08,10.4,31.2-18.72,39.53-35.37
	s8.32-22.88,10.4-43.69c0,0,35.37-24.96,56.17-66.57c20.8-41.61,20.8-68.65,20.8-68.65s-43.69,0-74.89,20.8
	s-56.17,39.53-62.41,56.17c0,0-14.56-2.08-33.29,4.16c-18.72,6.24-47.85,39.53-47.85,39.53h49.93c4.16,0,2.08,4.16,2.08,4.16
	l-8.32,10.4C572.55,303.35,574.63,305.43,574.63,305.43z"/>
</svg>
